<svg xmlns="http://www.w3.org/2000/svg" xmlns:xlink="http://www.w3.org/1999/xlink" width="240" height="101" viewBox="0 0 240 101">
  <style>
    .s0{fill:#FFF;stroke:#FFF;stroke-width:0;}
    <!-- mute -->
    .s1{stroke-width:5;stroke:#666;stroke-linecap:round}
    <!-- big play circle -->
    .s2{stroke-width:5;fill:none;}
    <!-- big play triangle -->
    .s3{stroke-width:4;stroke-linejoin:round;
  </style>
  <defs>
    <g id="play">
      <polygon points="2,1 18,10 2,19"/>
    </g>
    <g id="bar">
      <rect y="2.5" width="3.5" height="15"/>
    </g>
    <g id="hp">
      <rect x="2" y="6" width="7" height="8"/>
      <polygon points="10,6 18,1 18,19 10,14"/>
    </g>
  </defs>
  <!-- play -->
  <g class="s0">
    <use x="1" y="0" xlink:href="#play"/>
  </g>
  <!-- pause -->
  <g class="s0">
    <use x="23" xlink:href="#bar"/>
    <use x="32" xlink:href="#bar"/>
  </g>
  <!-- mute -->
  <g class="s0">
    <use class="s0" x="40" y="0" xlink:href="#hp" />
    <line class="s1" x1="46" y1="2.5" x2="56" y2="17.5"/>
  </g>
  <!-- hp -->
  <use class="s0" x="60" y="0" xlink:href="#hp"/>
  <!-- plein écran -->
  <g class="s0">
    <polygon points="80,0 89,0 80,8"/>
    <polygon points="91,0 100,0 100,8"/>
    <polygon points="80,11 80,20 89,20"/>
    <polygon points="100,11 100,20 91,20"/>
  </g>
  <!-- sortie plein écran -->
  <g class="s0">
    <polygon points="100,7 107,7 107,0"/>
    <polygon points="113,0 113,7 120,7"/>
    <polygon points="100,13 107,13 107,20"/>
    <polygon points="113,13 120,13 113,20"/>
  </g>
  <!-- download -->
  <g class="s0">
    <rect x="126" y="0" width="8" height="10"/>
    <polygon points="120,7.5 140,7.5 130,16"/>
    <rect x="121" y="18" width="18" height="2"/>
  </g>
  <!-- previous -->
  <g class="s0">
    <use x="140" transform="rotate(180 150 10)" xlink:href="#play"/>
    <use x="142" xlink:href="#bar"/>
  </g>
  <!-- next -->
  <g class="s0">
    <use x="160" xlink:href="#play"/>
    <use x="175" xlink:href="#bar"/>
  </g>
  <!-- big play -->
  <g>
    <circle class="s0 s2" cx="40" cy="61" r="37.5" opacity="0.8"/>
    <polygon class="s0 s3" points="28,42 28,80 62,61"/>
  </g>
  <!-- big play over -->
  <g>
    <circle class="s0 s2" cx="120" cy="61" r="37.5"/>
    <polygon class="s0 s3" points="108,42 108,80 142,61"/>
  </g>
  <!-- big loading -->
  <g class="s0">
    <circle cx="200" cy="28" r="8"/>
    <circle cx="177.5" cy="37.5" r="7.5" opacity="0.9"/>
    <circle cx="168" cy="60" r="7" opacity="0.8"/>
    <circle cx="177.5" cy="82.5" r="6.5" opacity="0.7"/>
    <circle cx="200" cy="92" r="6" opacity="0.6"/>
    <circle cx="222.5" cy="82.5" r="5.5" opacity="0.5"/>
    <circle cx="232" cy="60" r="5" opacity="0.4"/>
    <circle cx="222.5" cy="37.5" r="4.5" opacity="0.3"/>
  </g>
</svg>