<?xml version="1.0" standalone="no"?>
<!DOCTYPE svg PUBLIC "-//W3C//DTD SVG 20010904//EN"
 "http://www.w3.org/TR/2001/REC-SVG-20010904/DTD/svg10.dtd">
<svg version="1.0" xmlns="http://www.w3.org/2000/svg"
 width="512.000000pt" height="512.000000pt" viewBox="0 0 512.000000 512.000000"
 preserveAspectRatio="xMidYMid meet">
<metadata>
Created by potrace 1.11, written by Peter Selinger 2001-2013
</metadata>
<g transform="translate(0.000000,512.000000) scale(0.100000,-0.100000)"
fill="#000000" stroke="none">
<path d="M2428 5115 c-2 -1 -34 -5 -72 -9 -37 -3 -87 -11 -110 -16 -22 -5 -52
-11 -66 -13 -42 -8 -84 -19 -95 -26 -5 -3 -18 -7 -28 -8 -10 -2 -39 -13 -65
-24 -25 -12 -52 -22 -59 -23 -7 -1 -19 -8 -25 -14 -7 -7 -17 -12 -24 -12 -43
0 -284 -195 -339 -273 -11 -15 -29 -20 -88 -22 -42 -2 -84 -8 -94 -13 -10 -6
-21 -10 -26 -11 -68 -7 -205 -81 -312 -169 -27 -22 -132 -123 -169 -162 -26
-28 -23 -52 9 -70 42 -23 126 -51 136 -44 5 3 9 1 9 -4 0 -5 6 -9 13 -9 6 0
30 -3 52 -7 57 -10 154 -8 194 4 19 5 36 8 38 7 1 -2 -2 -30 -7 -63 -5 -32
-12 -81 -16 -109 -9 -63 -10 -280 -1 -322 7 -31 2 -38 -101 -140 -110 -110
-217 -245 -291 -365 -57 -95 -121 -224 -114 -232 4 -3 1 -6 -5 -6 -7 0 -12 -8
-12 -18 0 -10 -4 -22 -9 -27 -5 -6 -23 -54 -40 -107 -35 -110 -48 -165 -67
-277 -3 -18 -8 -43 -10 -55 -2 -11 -7 -70 -11 -130 -6 -100 -8 -112 -32 -136
-85 -86 -143 -191 -162 -295 -13 -72 -6 -177 15 -227 30 -70 119 -100 248 -84
25 3 30 -2 59 -73 135 -329 362 -620 646 -829 35 -25 63 -49 63 -53 0 -4 -9
-11 -20 -14 -32 -10 -135 -110 -170 -165 -39 -61 -70 -140 -77 -200 -12 -94
-7 -125 27 -164 17 -18 49 -42 73 -51 79 -32 119 -35 447 -40 247 -4 344 2
390 22 8 3 20 7 26 8 26 6 66 40 81 68 17 33 19 106 4 182 -5 27 -8 52 -6 56
2 3 30 0 62 -6 65 -13 392 -13 487 0 56 8 58 7 52 -13 -14 -42 -24 -130 -21
-171 11 -139 152 -173 620 -148 269 15 347 33 405 92 34 35 35 39 34 108 -1
81 -4 96 -27 151 -9 21 -17 40 -17 42 0 13 -62 99 -97 136 -51 52 -59 59 -100
83 -27 16 -29 21 -20 37 7 10 17 18 24 18 7 0 13 5 13 10 0 6 5 10 11 10 12 0
132 97 137 111 2 5 8 9 12 9 28 0 232 232 319 362 49 74 161 274 161 289 0 3
11 32 25 63 14 31 25 57 24 59 0 1 4 13 9 27 5 14 11 34 14 45 2 13 10 19 23
17 76 -11 91 -14 102 -17 7 -2 35 3 62 12 44 14 53 21 79 72 17 31 33 70 36
86 4 17 9 41 12 55 3 14 6 48 6 75 0 47 -3 75 -18 150 -9 40 -58 143 -86 179
-33 43 -108 116 -119 116 -13 0 -26 38 -32 91 -3 24 -10 64 -16 89 -5 25 -12
56 -14 70 -8 45 -49 175 -60 188 -5 6 -7 12 -4 12 22 0 -167 376 -195 388 -5
2 -8 8 -8 13 0 24 -174 235 -263 320 -37 34 -38 37 -30 80 9 51 8 353 -2 419
-4 25 -10 62 -15 82 -9 41 -9 41 64 21 24 -7 133 -5 166 3 14 3 39 7 55 10 60
11 164 51 177 69 4 5 8 15 8 21 0 11 -156 173 -192 199 -7 6 -31 24 -53 41
-53 42 -186 108 -258 129 -32 9 -87 18 -123 20 l-64 3 -83 85 c-76 78 -218
187 -244 187 -6 0 -13 4 -15 8 -10 26 -283 118 -403 137 -22 3 -56 8 -75 11
-36 5 -347 13 -352 9z"/>
</g>
</svg>
