<svg xmlns="http://www.w3.org/2000/svg" xmlns:xlink="http://www.w3.org/1999/xlink" width="240" height="101"><defs><path d="M2 1l16 9-16 9z" id="A"/><path d="M0 2.5h3.5v15H0z" id="B"/><path d="M2 6h7v8H2zm8 0l8-5v18l-8-5z" id="C"/></defs><g fill="#fff"><use x="1" xlink:href="#A"/><use x="23" xlink:href="#B"/><use x="32" xlink:href="#B"/><use x="40" xlink:href="#C"/><path d="M46 2.5l10 15" stroke-width="5" stroke="#666" stroke-linecap="round"/><use x="60" xlink:href="#C"/><path d="M80 0h9l-9 8zm11 0h9v8zM80 11v9h9zm20 0v9h-9z"/><path d="M100 7h7V0zm13-7v7h7zm-13 13h7v7zm13 0h7l-7 7zm13-13h8v10h-8z"/><path d="M120 7.5h20L130 16zm1 10.5h18v2h-18z"/><use x="140" transform="rotate(180 150 10)" xlink:href="#A"/><use x="142" xlink:href="#B"/><use x="160" xlink:href="#A"/><use x="175" xlink:href="#B"/></g><circle cx="40" cy="61" r="37.5" opacity=".8" fill="none" stroke="#fff" stroke-width="5"/><path d="M28 42v38l34-19z" fill="#fff"/><circle cx="120" cy="61" r="37.5" fill="none" stroke="#fff" stroke-width="5"/><g fill="#fff"><path d="M108 42v38l34-19z"/><circle cx="200" cy="28" r="8"/><circle cx="177.5" cy="37.5" r="7.5" opacity=".9"/><circle cx="168" cy="60" r="7" opacity=".8"/><circle cx="177.5" cy="82.5" r="6.5" opacity=".7"/><circle cx="200" cy="92" r="6" opacity=".6"/><circle cx="222.5" cy="82.5" r="5.5" opacity=".5"/><circle cx="232" cy="60" r="5" opacity=".4"/><circle cx="222.5" cy="37.5" r="4.5" opacity=".3"/></g></svg>